<svg xmlns="http://www.w3.org/2000/svg" version="1.1" xmlns:xlink="http://www.w3.org/1999/xlink" xmlns:svgjs="http://svgjs.dev/svgjs" width="100%" height="100%" viewBox="0 0 1000 600"><rect width="1000" height="600" x="0" y="0" fill="#ffffff"/><g><rect width="333.3333333333333" height="333.3333333333333" y="511.3319218834191" fill="#2e2f2f" transform="matrix(0.2555664315488773,0,0,0.2555664315488773,0,126.72633790268728)" x="489.10986328125"/><path d="M609.5611733369657 602.998588299691L701.9918766883166 602.998588299691L701.9918766883166 619.5424921080959L629.972105627827 619.5424921080959L629.972105627827 671.9945175393123L691.5247319237723 671.9945175393123L691.5247319237723 688.5093459455933L629.972105627827 688.5093459455933L629.972105627827 752.9985878560357L609.5611733369657 752.9985878560357L609.5611733369657 602.998588299691Z " fill="#ffffff" transform="matrix(0.2555664315488773,0,0,0.2555664315488773,0,126.72633790268728)"/><path d="M1015.9611903889397 721.5492304421742L1015.9611903889397 721.5492304421742Q1017.5840219317396 721.5492304421742 1018.8990750784913 722.8642835889258L1018.8990750784913 722.8642835889258L1026.5375752713253 731.2302599906011Q1017.6959413484844 741.4988664769384 1005.0490472563198 747.2347365851105Q992.402153164155 752.9985865474686 974.5789860475425 752.9985865474686L974.5789860475425 752.9985865474686Q958.96622741164 752.9985865474686 946.2633736111029 747.598474689531Q933.5884996647521 742.1983628315935 924.6069664709803 732.4893534289803Q915.6534131313947 722.7803440263672 910.7009789404364 709.1821348918716Q905.7765246036643 695.5839257573758 905.7765246036643 679.2436909126321L905.7765246036643 679.2436909126321Q905.7765246036643 662.9314359220746 911.0647170448569 649.333226787579Q916.3529094860498 635.7350176530832 925.9220196177318 625.9700485420977Q935.4911297494141 616.2050794311122 948.8375201962338 610.8049675731746Q962.1839106430537 605.4328355694232 978.3003066543077 605.4328355694232L978.3003066543077 605.4328355694232Q994.2208436862584 605.4328355694232 1005.7485436109749 610.3572899061953Q1017.2762435356914 615.2817442429674 1026.2577767294633 623.7596400613876L1026.2577767294633 623.7596400613876L1019.9063498291946 632.7131934009732Q1019.2068534745396 633.7204681516765 1018.2835182863947 634.3919846521454Q1017.3881629524361 635.0355212984282 1015.6813918470776 635.0355212984282L1015.6813918470776 635.0355212984282Q1014.3663387003261 635.0355212984282 1012.9113862826433 634.0842062560972Q1011.4284540107745 633.1328912137662 1009.4139045093677 631.7059186502697Q1007.3993550079609 630.3069259409596 1004.6853091518991 628.6840943981596Q1001.9712632958372 627.0892427095459 998.249942689072 625.6622701460495Q994.5286220823066 624.2632774367393 989.5761878913484 623.3119623944082Q984.6517335545763 622.3326674978911 978.1883872375629 622.3326674978911L978.1883872375629 622.3326674978911Q966.604727604474 622.3326674978911 957.0076376186057 626.3337866465184Q947.3825677785512 630.3069259409596 940.4155840861861 637.6656275919314Q933.4765802480072 644.9963493887171 929.5873805161248 655.5727342711026Q925.7261606384284 666.1491191534882 925.7261606384284 679.2436909126321L925.7261606384284 679.2436909126321Q925.7261606384284 692.7579604845691 929.5873805161248 703.3343453669546Q933.4765802480072 713.9107302493402 940.1637653985102 721.2134721919397Q946.8789304031994 728.5162141345392 956.0283427220885 732.3494541580493Q965.2057348951638 736.1547143273732 975.7821197775493 736.1547143273732L975.7821197775493 736.1547143273732Q982.2174862403764 736.1547143273732 987.3657794106382 735.3992582643457Q992.5140725808999 734.6438022013181 996.8789298339478 733.0489505127044Q1001.271766941182 731.4261189699046 1005.0490472563198 728.9638918015185Q1008.8263275714575 726.5016646331325 1012.6595675949675 723.0601425682293L1012.6595675949675 723.0601425682293Q1014.3663387003261 721.5492304421742 1015.9611903889397 721.5492304421742ZM1051.4396454970476 602.9985882552234L1069.346752176219 602.9985882552234L1069.346752176219 751.3757550046687L1051.4396454970476 751.3757550046687L1051.4396454970476 602.9985882552234ZM1142.2902320396556 647.7383750989653L1142.2902320396556 647.7383750989653Q1153.4541938599514 647.7383750989653 1162.4916867620955 651.4596957057305Q1171.5011998100535 655.1810163124958 1177.7966670019496 662.0360805881161Q1184.0921341938458 668.8911448637363 1187.4497166961905 678.6001542663495Q1190.8352790527213 688.3091636689626 1190.8352790527213 700.3125211148446L1190.8352790527213 700.3125211148446Q1190.8352790527213 712.3998181232852 1187.4497166961905 722.0528678175258Q1184.0921341938458 731.7338973659528 1177.7966670019496 738.5889616415731Q1171.5011998100535 745.4440259171932 1162.4916867620955 749.1093868155862Q1153.4541938599514 752.774747713979 1142.2902320396556 752.774747713979L1142.2902320396556 752.774747713979Q1131.0982903651734 752.774747713979 1122.0887773172153 749.1093868155862Q1113.0792642692575 745.4440259171932 1106.7278373689887 738.5889616415731Q1100.3764104687202 731.7338973659528 1096.9628682580033 722.0528678175258Q1093.5213461931003 712.3998181232852 1093.5213461931003 700.3125211148446L1093.5213461931003 700.3125211148446Q1093.5213461931003 688.3091636689626 1096.9628682580033 678.6001542663495Q1100.3764104687202 668.8911448637363 1106.7278373689887 662.0360805881161Q1113.0792642692575 655.1810163124958 1122.0887773172153 651.4596957057305Q1131.0982903651734 647.7383750989653 1142.2902320396556 647.7383750989653ZM1142.2902320396556 738.7848206208764L1142.2902320396556 738.7848206208764Q1157.3993533002063 738.7848206208764 1164.8419945137366 728.6561134054703Q1172.3126155814534 718.527406190064 1172.3126155814534 700.3964606774031L1172.3126155814534 700.3964606774031Q1172.3126155814534 682.1815756021837 1164.8419945137366 671.996908678405Q1157.3993533002063 661.8402216088126 1142.2902320396556 661.8402216088126L1142.2902320396556 661.8402216088126Q1134.6237519926353 661.8402216088126 1128.9998013012082 664.4423480481297Q1123.3478707555946 667.0724543416329 1119.5705904404572 671.996908678405Q1115.7933101253193 676.9493428693632 1113.9186598948436 684.140165395218Q1112.071989518554 691.3309879210727 1112.071989518554 700.3964606774031L1112.071989518554 700.3964606774031Q1112.071989518554 709.4619334337336 1113.9186598948436 716.624776105402Q1115.7933101253193 723.7876187770705 1119.5705904404572 728.6561134054703Q1123.3478707555946 733.5525878880561 1128.9998013012082 736.1547143273732Q1134.6237519926353 738.7848206208764 1142.2902320396556 738.7848206208764ZM1210.589056108182 649.333226787579L1228.4961627873531 649.333226787579L1228.4961627873531 714.4143676246919Q1228.4961627873531 725.9980272577808 1233.8403149369183 732.3494541580493Q1239.1844670864834 738.6729012041317 1249.9567109481725 738.6729012041317L1249.9567109481725 738.6729012041317Q1257.819049974496 738.6729012041317 1264.758053812675 734.9515805973664Q1271.7250375050398 731.2302599906011 1277.572827029957 724.5710546942843L1277.572827029957 724.5710546942843L1277.572827029957 649.333226787579L1295.479933709128 649.333226787579L1295.479933709128 751.3757550046687L1284.819609264184 751.3757550046687Q1280.9863692406739 751.3757550046687 1279.9790944899705 747.6544343979034L1279.9790944899705 747.6544343979034L1278.5801017806602 736.6583517027249Q1271.9208964843433 744.0170533536968 1263.666839499413 748.4938300234896Q1255.4127825144824 752.9985865474686 1244.724478215352 752.9985865474686L1244.724478215352 752.9985865474686Q1236.3585018136769 752.9985865474686 1229.9790950592221 750.2285809830344Q1223.5717084505811 747.4585754186 1219.2348310517195 742.4222016650831Q1214.8979536528577 737.3858279115663 1212.7435048805198 730.2229852398976Q1210.589056108182 723.0601425682293 1210.589056108182 714.4143676246919L1210.589056108182 714.4143676246919L1210.589056108182 649.333226787579ZM1407.511269870693 751.3757550046687L1396.8229655715627 751.3757550046687Q1392.9897255480528 751.3757550046687 1391.9824507973494 747.6544343979034L1391.9824507973494 747.6544343979034L1390.3875991087357 735.2593589934146Q1383.8403132291637 743.2056375822968 1375.418377119116 747.9901926481378Q1366.9964410090683 752.774747713979 1356.1402575848206 752.774747713979L1356.1402575848206 752.774747713979Q1347.3545833703524 752.774747713979 1340.21972055287 749.4171652116344Q1333.0568778812017 746.0316028551036 1328.0205041276845 739.4843169755316Q1322.9841303741678 732.9370310959596 1320.2700845181057 723.172061984974Q1317.5560386620439 713.4070928739885 1317.5560386620439 700.7042390734514L1317.5560386620439 700.7042390734514Q1317.5560386620439 689.4283578364108 1320.5778629141541 679.7193484337976Q1323.5996871662642 669.9823591769983 1329.2795975660638 662.847496359516Q1334.9874878200494 655.6846536878475 1343.1296253882354 651.5995949766615Q1351.2997428106073 647.5145362654756 1361.6802687136892 647.5145362654756L1361.6802687136892 647.5145362654756Q1371.0255400118817 647.5145362654756 1377.6847453081987 650.704239642703Q1384.3439506045152 653.8659631657441 1389.5761833373358 659.6018332739162L1389.5761833373358 659.6018332739162L1389.5761833373358 602.9985882552234L1407.511269870693 602.9985882552234L1407.511269870693 751.3757550046687ZM1362.0719866722961 738.2811832455247L1362.0719866722961 738.2811832455247Q1370.8296810325783 738.2811832455247 1377.4329266205227 734.2520842427112Q1384.0361722084672 730.2229852398976 1389.5761833373358 722.8642835889258L1389.5761833373358 722.8642835889258L1389.5761833373358 673.50782080446Q1384.6237491463773 666.8765953623296 1378.7479797672745 664.1905293604538Q1372.844230533985 661.5324432127644 1365.7093677165026 661.5324432127644L1365.7093677165026 661.5324432127644Q1351.3836823731658 661.5324432127644 1343.745182180332 671.6891302823568Q1336.0787021333117 681.8737972061355 1336.0787021333117 700.7042390734514L1336.0787021333117 700.7042390734514Q1336.0787021333117 710.6930470179266 1337.78547323867 717.7719501270365Q1339.5202241982147 724.8788330903325 1342.8218469921871 729.4675291768702Q1346.1514496403456 734.0562252634078 1350.9919644145589 736.1547143273732Q1355.8324791887726 738.2811832455247 1362.0719866722961 738.2811832455247ZM1530.3987894565057 751.3757550046687L1479.3075757124952 751.3757550046687L1479.3075757124952 607.027687258037L1525.362415702989 607.027687258037Q1538.6528464414364 607.027687258037 1548.277916281491 609.6577935515402Q1557.875006267359 612.2599199908573 1564.0865338966964 617.1004347650708Q1570.270081671848 621.9409495392842 1573.2359462155855 628.9359130858355Q1576.2297906135095 635.9308766323867 1576.2297906135095 644.7165508468551L1576.2297906135095 644.7165508468551Q1576.2297906135095 650.0327231422341 1574.5509993623373 654.9851573331923Q1572.900187965351 659.9096116699644 1569.5146256088206 664.1345696520814Q1566.1570431064756 668.3875074883846 1561.0647096445864 671.6891302823568Q1555.9723761826972 675.0187329305152 1549.1173119070768 677.1452018486667L1549.1173119070768 677.1452018486667Q1564.9259295222828 680.2509656633355 1572.98412752791 688.5330025024522Q1581.0423255335368 696.7870594873826 1581.0423255335368 710.2733492051335L1581.0423255335368 710.2733492051335Q1581.0423255335368 719.4507413782088 1577.6847430311923 727.0053020084841Q1574.2991806746613 734.5598626387595 1567.8078545034618 739.9879543508833Q1561.3165283322624 745.4440259171932 1551.8873174715113 748.409890460931Q1542.4860864649463 751.3757550046687 1530.3987894565057 751.3757550046687L1530.3987894565057 751.3757550046687ZM1529.9790916437128 685.5951178129006L1498.8654937886527 685.5951178129006L1498.8654937886527 735.8749157855111L1530.0910110604577 735.8749157855111Q1538.456987462133 735.8749157855111 1544.4446762579805 733.9443058466629Q1550.4323650538286 732.0416757620011 1554.321564785711 728.5721738429116Q1558.1827846634073 725.074692069636 1560.0014751855106 720.2901370037949Q1561.8201657076138 715.5055819379539 1561.8201657076138 709.7697118297818L1561.8201657076138 709.7697118297818Q1561.8201657076138 698.6057500094861 1553.901866972918 692.0864439841002Q1546.0115480924082 685.5951178129006 1529.9790916437128 685.5951178129006L1529.9790916437128 685.5951178129006ZM1498.8654937886527 622.4445869146359L1498.8654937886527 671.6891302823568L1524.6349394941476 671.6891302823568Q1532.9169763332643 671.6891302823568 1538.9606248374844 669.8984196144396Q1545.004273341705 668.0797290923364 1548.9774126361458 664.8620458609226Q1552.9505519305872 661.6163827753229 1554.8531820152489 657.0556665429716Q1556.783791954097 652.4669704564338 1556.783791954097 647.0108988901239L1556.783791954097 647.0108988901239Q1556.783791954097 634.336024943773 1549.1173119070768 628.3763160021114Q1541.478811714243 622.4445869146359 1525.362415702989 622.4445869146359L1525.362415702989 622.4445869146359L1498.8654937886527 622.4445869146359ZM1681.769800603875 686.0987551882523L1681.769800603875 751.3757550046687L1673.8235220149927 751.3757550046687Q1671.1934157214896 751.3757550046687 1669.5985640328759 750.5643392332688Q1667.9757324900756 749.7529234618688 1667.4720951147242 747.1507970225517L1667.4720951147242 747.1507970225517L1665.4575456133175 737.6656264534282Q1661.4284466105041 741.3030074976349 1657.5952065869938 744.1849324788141Q1653.7899464176699 747.038877605807 1649.5370085813665 748.9974673988413Q1645.3120505992497 750.9840370460619 1640.5274955334085 751.9913117967652Q1635.7429404675677 752.9985865474686 1629.895150942651 752.9985865474686L1629.895150942651 752.9985865474686Q1623.9634218551755 752.9985865474686 1618.7871488307273 751.3197952962963Q1613.5828959520932 749.6689838993102 1609.7496559285833 746.3393812511518Q1605.9443957592594 743.0097786029934 1603.6780275701767 737.9174451411042Q1601.411659381094 732.853091533401 1601.411659381094 725.8861078410359L1601.411659381094 725.8861078410359Q1601.411659381094 719.8424593368156 1604.713282175066 714.2464884995746Q1608.0428848232245 708.6784975165198 1615.4575461825689 704.3416201176581Q1622.8442276877272 700.0047427187963 1634.8475851336093 697.2347371543619Q1646.822962725305 694.4647315899276 1664.1424924665657 694.0730136313208L1664.1424924665657 694.0730136313208L1664.1424924665657 686.0987551882523Q1664.1424924665657 674.2073171591152 1659.0781388588625 668.1356888007087Q1653.9858053969733 662.0360805881161 1643.9969974524984 662.0360805881161L1643.9969974524984 662.0360805881161Q1637.4497115729264 662.0360805881161 1632.9729349031331 663.6868919851021Q1628.4961582333408 665.3656832362744 1625.2225152935548 667.4082125918674Q1621.9488723537688 669.4787218016465 1619.5705847479412 671.1575130528189Q1617.2202769963 672.808324449805 1614.897949098845 672.808324449805L1614.897949098845 672.808324449805Q1613.0792585767417 672.808324449805 1611.736225575804 671.857009407474Q1610.3652127206797 670.905694365143 1609.5537969492798 669.4787218016465L1609.5537969492798 669.4787218016465L1606.3361137178663 663.7428516934746Q1614.7860296821 655.5727342711026 1624.578978647272 651.5436352682891Q1634.3439477582574 647.5145362654756 1646.2353857873945 647.5145362654756L1646.2353857873945 647.5145362654756Q1654.7972211683732 647.5145362654756 1661.4284466105041 650.3405015382823Q1668.0876519068206 653.166466811089 1672.620388284986 658.2028405646059Q1677.1531246631512 663.2392143181229 1679.4754525606063 670.4020569897913Q1681.769800603875 677.5369198072736 1681.769800603875 686.0987551882523L1681.769800603875 686.0987551882523ZM1635.2393030922158 740.4076521636763L1635.2393030922158 740.4076521636763Q1639.9678984496845 740.4076521636763 1643.9130578899394 739.4283572671592Q1647.8302374760083 738.4770422248282 1651.2997393950977 736.7143114110974Q1654.7972211683732 734.9515805973664 1657.9589446914147 732.4333937206079Q1661.1206682144557 729.9152068438494 1664.1424924665657 726.6975236124359L1664.1424924665657 726.6975236124359L1664.1424924665657 705.43283443092Q1651.7753969162632 705.8525322437132 1643.1016421185395 707.4194040781406Q1634.4278873208164 708.958296058382 1628.9997956086922 711.4764829351403Q1623.5717038965686 713.9946698118988 1621.0814968739965 717.436191876802Q1618.6192697056103 720.8497340875191 1618.6192697056103 725.074692069636L1618.6192697056103 725.074692069636Q1618.6192697056103 729.1037910724496 1619.9343228523621 732.0416757620011Q1621.2493759991135 734.9515805973664 1623.4597844798236 736.8262308278421Q1625.6701929605338 738.6729012041317 1628.6920172126443 739.5402766839039Q1631.7138414647543 740.4076521636763 1635.2393030922158 740.4076521636763ZM1771.417253416476 659.6018332739162L1767.3881544136625 666.1491191534882Q1766.1850206836557 668.3875074883846 1763.666833806897 668.3875074883846L1763.666833806897 668.3875074883846Q1762.1559216808423 668.3875074883846 1760.2532915961801 667.2683133209364Q1758.322681657332 666.1491191534882 1755.5526760928979 664.8060861525504Q1752.7826705284633 663.4350732974264 1748.9774103591394 662.2878992757918Q1745.1441703356295 661.1127453999712 1739.9119376028093 661.1127453999712L1739.9119376028093 661.1127453999712Q1735.379201224644 661.1127453999712 1731.7418201804371 662.2878992757918Q1728.1044391362307 663.4350732974264 1725.558272405286 665.449622798833Q1722.984125820155 667.4641723002397 1721.6131129650307 670.1502383021156Q1720.270079964093 672.808324449805 1720.270079964093 675.9420681186599L1720.270079964093 675.9420681186599Q1720.270079964093 679.8592477047287 1722.5364481531756 682.4893539982319Q1724.8028163422582 685.091480437549 1728.5241369490236 687.0220903763972Q1732.245457555789 688.9247204610591 1736.9740529132578 690.3796728787418Q1741.702648270726 691.8346252964244 1746.7110421700572 693.5134165475966Q1751.6914562152015 695.1642279445828 1756.4200515726698 697.1787774459896Q1761.1486469301385 699.1933269473963 1764.869967536904 702.2151511995065Q1768.6192679978553 705.2369754516166 1770.885636186938 709.6298125588509Q1773.1520043760206 713.9946698118988 1773.1520043760206 720.150237732864L1773.1520043760206 720.150237732864Q1773.1520043760206 727.2011609877876 1770.633817499262 733.1888497836354Q1768.1156306225039 739.1765385794833 1763.1631964315457 743.5693756867175Q1758.2387420947734 747.9622127939517 1751.075899423105 750.4803996707102Q1743.9410366056227 752.9985865474686 1734.5677854532437 752.9985865474686L1734.5677854532437 752.9985865474686Q1723.8794811541138 752.9985865474686 1715.2337062105762 749.501104774193Q1706.5599514128526 746.0316028551036 1700.5163029086325 740.6035111429798L1700.5163029086325 740.6035111429798L1704.7412608907493 733.7484468673596Q1705.5526766621492 732.4333937206079 1706.6718708295975 731.7338973659528Q1707.7630851428594 731.0344010112977 1709.5817756649626 731.0344010112977L1709.5817756649626 731.0344010112977Q1711.4004661870663 731.0344010112977 1713.415015688473 732.4333937206079Q1715.4295651898797 733.8603662841043 1718.2835103168727 735.5671373894629Q1721.1654352980518 737.2739084948214 1725.2504940092376 738.6729012041317Q1729.3355527204235 740.0998737676281 1735.4631407872025 740.0998737676281L1735.4631407872025 740.0998737676281Q1740.6953735200227 740.0998737676281 1744.6405329602776 738.728860912504Q1748.5577125463465 737.3858279115663 1751.1878188398496 735.0635000141111Q1753.7899452791667 732.7411721166562 1755.049038717546 729.719347864546Q1756.3081321559253 726.6975236124359 1756.3081321559253 723.2839814017188L1756.3081321559253 723.2839814017188Q1756.3081321559253 719.0310435654156 1754.0417639668426 716.2610380009813Q1751.77539577776 713.4910324365471 1748.0540751709946 711.5324426435128Q1744.3327545642296 709.5738528504784 1739.5481994983884 708.1189004327957Q1734.7636444325472 706.6639480151131 1729.783230387403 705.0411164723132Q1724.8028163422582 703.4182849295133 1720.0182612764174 701.3757555739203Q1715.2337062105762 699.3052463641411 1711.4844057496248 696.1715026952862Q1707.7630851428594 693.0657388806175 1705.4967169537767 688.4770427940798Q1703.230348764694 683.8883467075422 1703.230348764694 677.3410608279702L1703.230348764694 677.3410608279702Q1703.230348764694 671.4932713030533 1705.6645960788942 666.121139299302Q1708.0708635389078 660.7210274413644 1712.7155193338176 656.6359687301784Q1717.3321952745418 652.5509100189926 1724.0753401334168 650.144642558979Q1730.8464648464787 647.7383750989653 1739.492239790016 647.7383750989653L1739.492239790016 647.7383750989653Q1749.5649872970498 647.7383750989653 1757.5672255943045 650.9000986220065Q1765.5974437457453 654.0618221450476 1771.417253416476 659.6018332739162L1771.417253416476 659.6018332739162ZM1836.8061726496371 647.7383750989653L1836.8061726496371 647.7383750989653Q1845.9555849685262 647.7383750989653 1853.7339844322914 650.7881792052616Q1861.4844040418702 653.8659631657441 1867.1083547332973 659.6577929822886Q1872.7602852789105 665.449622798833 1875.922008801952 673.9554984714393Q1879.111712179179 682.4893539982319 1879.111712179179 693.3455374224794L1879.111712179179 693.3455374224794Q1879.111712179179 697.5984752587826 1878.1883769910346 698.9974679680929Q1877.2930216570758 700.3964606774031 1874.7748347803176 700.3964606774031L1874.7748347803176 700.3964606774031L1806.8957085245838 700.3964606774031Q1807.0915675038873 710.07749022583 1809.497834963901 717.2403328974985Q1811.932082278101 724.3751957149808 1816.1570402602179 729.1597507808219Q1820.3819982423347 733.9443058466629 1826.2297877672518 736.3225934524904Q1832.0775772921684 738.6729012041317 1839.3243595263957 738.6729012041317L1839.3243595263957 738.6729012041317Q1846.0675043852711 738.6729012041317 1850.963978867857 737.1340092238903Q1855.8324734962566 735.5671373894629 1859.3579351237186 733.7484468673596Q1862.88339675118 731.9297563452562 1865.2616843570077 730.3628845108287Q1867.6119921086488 728.8239925305875 1869.3467430681935 728.8239925305875L1869.3467430681935 728.8239925305875Q1871.5571515489037 728.8239925305875 1872.7602852789105 730.530763635946L1872.7602852789105 730.530763635946L1877.7966590324277 737.0780495155179Q1874.4670563842692 741.1071485183314 1869.8503804435454 744.0730130620692Q1865.2057246486352 747.038877605807 1859.9175322074425 748.9694875446551Q1854.6293397662498 750.872117629317 1848.9774092206362 751.823432671648Q1843.353458529209 752.774747713979 1837.8134474003405 752.774747713979L1837.8134474003405 752.774747713979Q1827.237062517955 752.774747713979 1818.3114890325555 749.2213062323309Q1809.4138954013424 745.6398848964967 1802.894589375957 738.728860912504Q1796.403263204757 731.8458167826976 1792.7938620147365 721.661149858919Q1789.15648097053 711.4764829351403 1789.15648097053 698.2979716134378L1789.15648097053 698.2979716134378Q1789.15648097053 687.6096673143074 1792.430123910316 678.3483355786735Q1795.703766850102 669.0870038430397 1801.859334771067 662.2878992757918Q1807.9869228378457 655.4887947085441 1816.8565366148732 651.5995949766615Q1825.7261503918999 647.7383750989653 1836.8061726496371 647.7383750989653ZM1837.197890608244 660.9168864206678L1837.197890608244 660.9168864206678Q1824.215238265845 660.9168864206678 1816.7446171981283 668.4154873425708Q1809.3019759845974 675.9420681186599 1807.4832854624942 689.2324988571073L1807.4832854624942 689.2324988571073L1862.995316167925 689.2324988571073Q1862.995316167925 682.9929913735835 1861.2885450625668 677.7887384949495Q1859.553794103022 672.6124654705015 1856.2521713090496 668.8351851553639Q1852.922568660891 665.0579048402261 1848.1380135950503 662.9873956304469Q1843.353458529209 660.9168864206678 1837.197890608244 660.9168864206678ZM1984.455863190241 751.3757550046687L1973.795538745297 751.3757550046687Q1969.9622987217867 751.3757550046687 1968.9550239710838 747.6544343979034L1968.9550239710838 747.6544343979034L1967.3321924282836 735.2593589934146Q1960.7849065487117 743.2056375822968 1952.39095029285 747.9901926481378Q1943.9690141828028 752.774747713979 1933.0848509043685 752.774747713979L1933.0848509043685 752.774747713979Q1924.3271565440864 752.774747713979 1917.1922937266045 749.4171652116344Q1910.0294510549356 746.0316028551036 1904.993077301419 739.4843169755316Q1899.9567035479017 732.9370310959596 1897.2426576918401 723.172061984974Q1894.528611835778 713.4070928739885 1894.528611835778 700.7042390734514L1894.528611835778 700.7042390734514Q1894.528611835778 689.4283578364108 1897.550436087888 679.7193484337976Q1900.5722603399986 669.9823591769983 1906.2521707397982 662.847496359516Q1911.9320811395974 655.6846536878475 1920.1021985619695 651.5995949766615Q1928.2723159843413 647.5145362654756 1938.6248620332376 647.5145362654756L1938.6248620332376 647.5145362654756Q1947.9981131856161 647.5145362654756 1954.657318481933 650.704239642703Q1961.2885439240636 653.8659631657441 1966.5487565110698 659.6018332739162L1966.5487565110698 659.6018332739162L1966.5487565110698 602.9985882552234L1984.455863190241 602.9985882552234L1984.455863190241 751.3757550046687ZM1939.0445598460306 738.2811832455247L1939.0445598460306 738.2811832455247Q1947.8022542063127 738.2811832455247 1954.4054997942571 734.2520842427112Q1961.0087453822016 730.2229852398976 1966.5487565110698 722.8642835889258L1966.5487565110698 722.8642835889258L1966.5487565110698 673.50782080446Q1961.5963223201115 666.8765953623296 1955.7205529410085 664.1905293604538Q1949.8168037077194 661.5324432127644 1942.653961036051 661.5324432127644L1942.653961036051 661.5324432127644Q1928.3562555469002 661.5324432127644 1920.717755354066 671.6891302823568Q1913.0512753070461 681.8737972061355 1913.0512753070461 700.7042390734514L1913.0512753070461 700.7042390734514Q1913.0512753070461 710.6930470179266 1914.7580464124044 717.7719501270365Q1916.464817517763 724.8788330903325 1919.794420165921 729.4675291768702Q1923.1240228140796 734.0562252634078 1927.9645375882933 736.1547143273732Q1932.8050523625066 738.2811832455247 1939.0445598460306 738.2811832455247ZM2092.5420399115515 691.1351289417693L2077.740697047049 691.1351289417693L2077.740697047049 751.3757550046687L2058.2946983876363 751.3757550046687L2058.2946983876363 607.027687258037L2099.0893257911234 607.027687258037Q2112.799454342364 607.027687258037 2122.7602824326527 609.7976928224713Q2132.749090377128 612.5676983869056 2139.240416548327 617.7999311197258Q2145.731742719527 623.0601437067324 2148.865486388382 630.4468252118905Q2151.9712502030507 637.8614865712349 2151.9712502030507 647.0108988901239L2151.9712502030507 647.0108988901239Q2151.9712502030507 654.6773789371441 2149.564982743037 661.3365842334609Q2147.1307354288374 667.9678096755915 2142.5700191964856 673.2560021167843Q2137.9813231099483 678.544194557977 2131.378077522004 682.2655151647423Q2124.77483193406 686.0148156256938 2116.408855532384 687.9174457103558L2116.408855532384 687.9174457103558Q2120.046236576591 690.0439146285073 2122.8722018493977 694.0730136313208L2122.8722018493977 694.0730136313208L2164.981882399636 751.3757550046687L2147.634372804189 751.3757550046687Q2142.31820050881 751.3757550046687 2139.8000136320516 747.2347365851105L2139.8000136320516 747.2347365851105L2102.307009022537 695.6678653199345Q2100.600237917178 693.2615978599209 2098.5856884157715 692.1983634008451Q2096.571138914365 691.1351289417693 2092.5420399115515 691.1351289417693L2092.5420399115515 691.1351289417693ZM2077.740697047049 622.4445869146359L2077.740697047049 676.9493428693632L2098.193970457165 676.9493428693632Q2106.7558058381433 676.9493428693632 2113.247132009343 674.8788336595841Q2119.7384581805427 672.808324449805 2124.1312952877765 669.0310441346672Q2128.496152540825 665.2537638195296 2130.7345408757214 660.0215310867093Q2132.9449493564316 654.789298353889 2132.9449493564316 648.4378714536205L2132.9449493564316 648.4378714536205Q2132.9449493564316 635.5391586737799 2124.4390736838254 628.9918727942079Q2115.905218157033 622.4445869146359 2099.0893257911234 622.4445869146359L2099.0893257911234 622.4445869146359L2077.740697047049 622.4445869146359ZM2223.599676919736 647.7383750989653L2223.599676919736 647.7383750989653Q2232.749089238625 647.7383750989653 2240.5274887023897 650.7881792052616Q2248.2779083119685 653.8659631657441 2253.9018590033957 659.6577929822886Q2259.5537895490093 665.449622798833 2262.7155130720503 673.9554984714393Q2265.9052164492778 682.4893539982319 2265.9052164492778 693.3455374224794L2265.9052164492778 693.3455374224794Q2265.9052164492778 697.5984752587826 2264.981881261133 698.9974679680929Q2264.0865259271745 700.3964606774031 2261.568339050416 700.3964606774031L2261.568339050416 700.3964606774031L2193.6892127946826 700.3964606774031Q2193.885071773986 710.07749022583 2196.2913392339997 717.2403328974985Q2198.7255865481993 724.3751957149808 2202.9505445303166 729.1597507808219Q2207.1755025124335 733.9443058466629 2213.02329203735 736.3225934524904Q2218.871081562267 738.6729012041317 2226.117863796494 738.6729012041317L2226.117863796494 738.6729012041317Q2232.86100865537 738.6729012041317 2237.7574831379557 737.1340092238903Q2242.625977766355 735.5671373894629 2246.151439393817 733.7484468673596Q2249.676901021279 731.9297563452562 2252.055188627106 730.3628845108287Q2254.4054963787476 728.8239925305875 2256.1402473382923 728.8239925305875L2256.1402473382923 728.8239925305875Q2258.3506558190024 728.8239925305875 2259.5537895490093 730.530763635946L2259.5537895490093 730.530763635946L2264.590163302526 737.0780495155179Q2261.2605606543675 741.1071485183314 2256.6438847136437 744.0730130620692Q2251.999228918734 747.038877605807 2246.7110364775413 748.9694875446551Q2241.422844036348 750.872117629317 2235.770913490735 751.823432671648Q2230.146962799308 752.774747713979 2224.6069516704392 752.774747713979L2224.6069516704392 752.774747713979Q2214.0305667880534 752.774747713979 2205.1049933026543 749.2213062323309Q2196.2073996714407 745.6398848964967 2189.688093646055 738.728860912504Q2183.1967674748557 731.8458167826976 2179.5873662848353 721.661149858919Q2175.9499852406284 711.4764829351403 2175.9499852406284 698.2979716134378L2175.9499852406284 698.2979716134378Q2175.9499852406284 687.6096673143074 2179.223628180415 678.3483355786735Q2182.4972711202004 669.0870038430397 2188.652839041166 662.2878992757918Q2194.7804271079444 655.4887947085441 2203.6500408849715 651.5995949766615Q2212.5196546619986 647.7383750989653 2223.599676919736 647.7383750989653ZM2223.991394878343 660.9168864206678L2223.991394878343 660.9168864206678Q2211.0087425359434 660.9168864206678 2203.5381214682266 668.4154873425708Q2196.095480254696 675.9420681186599 2194.276789732593 689.2324988571073L2194.276789732593 689.2324988571073L2249.788820438024 689.2324988571073Q2249.788820438024 682.9929913735835 2248.082049332665 677.7887384949495Q2246.3472983731203 672.6124654705015 2243.0456755791483 668.8351851553639Q2239.71607293099 665.0579048402261 2234.9315178651486 662.9873956304469Q2230.146962799308 660.9168864206678 2223.991394878343 660.9168864206678ZM2351.215791863017 659.6018332739162L2347.1866928602035 666.1491191534882Q2345.9835591301967 668.3875074883846 2343.4653722534385 668.3875074883846L2343.4653722534385 668.3875074883846Q2341.954460127383 668.3875074883846 2340.023850188535 667.2683133209364Q2338.121220103873 666.1491191534882 2335.3512145394384 664.8060861525504Q2332.5812089750043 663.4350732974264 2328.7479689514944 662.2878992757918Q2324.914728927984 661.1127453999712 2319.682496195164 661.1127453999712L2319.682496195164 661.1127453999712Q2315.1497598169985 661.1127453999712 2311.540358626978 662.2878992757918Q2307.9029775827717 663.4350732974264 2305.3288309976406 665.449622798833Q2302.75468441251 667.4641723002397 2301.411651411572 670.1502383021156Q2300.040638556448 672.808324449805 2300.040638556448 675.9420681186599L2300.040638556448 675.9420681186599Q2300.040638556448 679.8592477047287 2302.3070067455305 682.4893539982319Q2304.573374934613 685.091480437549 2308.2946955413786 687.0220903763972Q2312.04399600233 688.9247204610591 2316.7725913597983 690.3796728787418Q2321.5011867172675 691.8346252964244 2326.4816007624117 693.5134165475966Q2331.462014807556 695.1642279445828 2336.218590019211 697.1787774459896Q2340.9471853766795 699.1933269473963 2344.668505983445 702.2151511995065Q2348.3898265902103 705.2369754516166 2350.656194779293 709.6298125588509Q2352.9225629683756 713.9946698118988 2352.9225629683756 720.150237732864L2352.9225629683756 720.150237732864Q2352.9225629683756 727.2011609877876 2350.404376091617 733.1888497836354Q2347.8861892148584 739.1765385794833 2342.961734878086 743.5693756867175Q2338.009300687128 747.9622127939517 2330.874437869646 750.4803996707102Q2323.711595197977 752.9985865474686 2314.3383440455987 752.9985865474686L2314.3383440455987 752.9985865474686Q2303.678019600655 752.9985865474686 2295.004264802931 749.501104774193Q2286.3584898593936 746.0316028551036 2280.3148413551735 740.6035111429798L2280.3148413551735 740.6035111429798L2284.5397993372903 733.7484468673596Q2285.35121510869 732.4333937206079 2286.442429421952 731.7338973659528Q2287.5616235894004 731.0344010112977 2289.380314111504 731.0344010112977L2289.380314111504 731.0344010112977Q2291.171024779421 731.0344010112977 2293.185574280828 732.4333937206079Q2295.200123782234 733.8603662841043 2298.0820487634137 735.5671373894629Q2300.9639737445927 737.2739084948214 2305.0210526015926 738.6729012041317Q2309.1061113127785 740.0998737676281 2315.2616792337435 740.0998737676281L2315.2616792337435 740.0998737676281Q2320.4939119665637 740.0998737676281 2324.4110915526326 738.728860912504Q2328.3562509928875 737.3858279115663 2330.9583774322045 735.0635000141111Q2333.5884837257076 732.7411721166562 2334.847577164087 729.719347864546Q2336.1066706024662 726.6975236124359 2336.1066706024662 723.2839814017188L2336.1066706024662 723.2839814017188Q2336.1066706024662 719.0310435654156 2333.8403024133836 716.2610380009813Q2331.573934224301 713.4910324365471 2327.8526136175356 711.5324426435128Q2324.1312930107706 709.5738528504784 2319.3467379449294 708.1189004327957Q2314.5621828790886 706.6639480151131 2309.5537889797574 705.0411164723132Q2304.573374934613 703.4182849295133 2299.788819868772 701.3757555739203Q2295.004264802931 699.3052463641411 2291.2829441961658 696.1715026952862Q2287.5616235894004 693.0657388806175 2285.2952554003177 688.4770427940798Q2283.0288872112355 683.8883467075422 2283.0288872112355 677.3410608279702L2283.0288872112355 677.3410608279702Q2283.0288872112355 671.4932713030533 2285.4351546712487 666.121139299302Q2287.869401985449 660.7210274413644 2292.4860779261726 656.6359687301784Q2297.1307337210824 652.5509100189926 2303.8738785799583 650.144642558979Q2310.6170234388333 647.7383750989653 2319.290778236557 647.7383750989653L2319.290778236557 647.7383750989653Q2329.363525743591 647.7383750989653 2337.3657640408455 650.9000986220065Q2345.3680023381 654.0618221450476 2351.215791863017 659.6018332739162L2351.215791863017 659.6018332739162ZM2373.7675543370983 649.333226787579L2391.7026408704555 649.333226787579L2391.7026408704555 714.4143676246919Q2391.7026408704555 725.9980272577808 2397.0467930200207 732.3494541580493Q2402.390945169586 738.6729012041317 2413.1631890312747 738.6729012041317L2413.1631890312747 738.6729012041317Q2421.0255280575984 738.6729012041317 2427.9645318957773 734.9515805973664Q2434.9315155881422 731.2302599906011 2440.7513252588733 724.5710546942843L2440.7513252588733 724.5710546942843L2440.7513252588733 649.333226787579L2458.6864117922305 649.333226787579L2458.6864117922305 751.3757550046687L2448.0260873472866 751.3757550046687Q2444.1928473237763 751.3757550046687 2443.185572573073 747.6544343979034L2443.185572573073 747.6544343979034L2441.7586000095766 736.6583517027249Q2435.1273745674457 744.0170533536968 2426.873317582515 748.4938300234896Q2418.5912807433983 752.9985865474686 2407.930956298455 752.9985865474686L2407.930956298455 752.9985865474686Q2399.5649798967793 752.9985865474686 2393.1575932881383 750.2285809830344Q2386.7781865336833 747.4585754186 2382.4413091348215 742.4222016650831Q2378.10443173596 737.3858279115663 2375.949982963622 730.2229852398976Q2373.7675543370983 723.0601425682293 2373.7675543370983 714.4143676246919L2373.7675543370983 714.4143676246919L2373.7675543370983 649.333226787579ZM2506.1402444920345 751.3757550046687L2488.205157958677 751.3757550046687L2488.205157958677 649.333226787579L2498.893462257807 649.333226787579Q2502.698722427131 649.333226787579 2503.7059971778344 653.0545473943442L2503.7059971778344 653.0545473943442L2505.0210503245858 663.5469927141711Q2510.6729808702 656.5800090218061 2517.6679444167507 652.1591920603856Q2524.662907963302 647.7383750989653 2533.9242396989357 647.7383750989653L2533.9242396989357 647.7383750989653Q2544.304765602018 647.7383750989653 2550.712152210659 653.4742452071373Q2557.0915589651136 659.2101153153093 2559.91752423792 668.9750844262949L2559.91752423792 668.9750844262949Q2562.0439931560722 663.4350732974264 2565.5134950751612 659.4059742946127Q2568.9829969942507 655.3768752917993 2573.3198743931125 652.7747488524822Q2577.6567517919743 650.144642558979 2582.525246420374 648.9415088289721Q2587.42172090296 647.7383750989653 2592.4580946564765 647.7383750989653L2592.4580946564765 647.7383750989653Q2600.516292662104 647.7383750989653 2606.8117598540002 650.2845418299099Q2613.1072270458963 652.8586884150408 2617.50006415313 657.811122605999Q2621.8649214061784 662.7355769427712 2624.187249303633 669.9263994686258Q2626.5095772010886 677.1452018486667 2626.5095772010886 686.4065335843006L2626.5095772010886 686.4065335843006L2626.5095772010886 751.3757550046687L2608.574490667731 751.3757550046687L2608.574490667731 686.4065335843006Q2608.574490667731 674.4311559926049 2603.342257934911 668.2196283632674Q2598.11002520209 662.0360805881161 2588.121217257615 662.0360805881161L2588.121217257615 662.0360805881161Q2583.7004002961944 662.0360805881161 2579.7272610017535 663.6029524225436Q2575.7261418531266 665.1418444027848 2572.704317601016 668.1636686548949Q2569.682493348906 671.1854929070051 2567.919762535175 675.7741889935427Q2566.157031721444 680.3628850800803 2566.157031721444 686.4065335843006L2566.157031721444 686.4065335843006L2566.157031721444 751.3757550046687L2548.249925042273 751.3757550046687L2548.249925042273 686.4065335843006Q2548.249925042273 674.1233775965567 2543.2974908513147 668.0797290923364Q2538.3730365145425 662.0360805881161 2528.887865945419 662.0360805881161L2528.887865945419 662.0360805881161Q2522.2566405032885 662.0360805881161 2516.5487502493024 665.6175019239503Q2510.868839849503 669.1709434055983 2506.1402444920345 675.3265113265635L2506.1402444920345 675.3265113265635L2506.1402444920345 751.3757550046687ZM2693.996985498215 647.7383750989653L2693.996985498215 647.7383750989653Q2703.146397817104 647.7383750989653 2710.924797280869 650.7881792052616Q2718.6752168904477 653.8659631657441 2724.299167581875 659.6577929822886Q2729.9510981274884 665.449622798833 2733.11282165053 673.9554984714393Q2736.302525027757 682.4893539982319 2736.302525027757 693.3455374224794L2736.302525027757 693.3455374224794Q2736.302525027757 697.5984752587826 2735.379189839612 698.9974679680929Q2734.4838345056537 700.3964606774031 2731.965647628895 700.3964606774031L2731.965647628895 700.3964606774031L2664.0865213731618 700.3964606774031Q2664.282380352465 710.07749022583 2666.688647812479 717.2403328974985Q2669.122895126679 724.3751957149808 2673.347853108796 729.1597507808219Q2677.5728110909126 733.9443058466629 2683.4206006158292 736.3225934524904Q2689.2683901407463 738.6729012041317 2696.5151723749736 738.6729012041317L2696.5151723749736 738.6729012041317Q2703.2583172338486 738.6729012041317 2708.154791716435 737.1340092238903Q2713.023286344834 735.5671373894629 2716.548747972296 733.7484468673596Q2720.074209599758 731.9297563452562 2722.4524972055856 730.3628845108287Q2724.8028049572267 728.8239925305875 2726.5375559167715 728.8239925305875L2726.5375559167715 728.8239925305875Q2728.7479643974816 728.8239925305875 2729.9510981274884 730.530763635946L2729.9510981274884 730.530763635946L2734.987471881005 737.0780495155179Q2731.6578692328467 741.1071485183314 2727.041193292123 744.0730130620692Q2722.396537497213 747.038877605807 2717.1083450560204 748.9694875446551Q2711.8201526148277 750.872117629317 2706.168222069214 751.823432671648Q2700.544271377787 752.774747713979 2695.0042602489184 752.774747713979L2695.0042602489184 752.774747713979Q2684.4278753665326 752.774747713979 2675.5023018811335 749.2213062323309Q2666.6047082499203 745.6398848964967 2660.0854022245344 738.728860912504Q2653.594076053335 731.8458167826976 2649.9846748633145 721.661149858919Q2646.3472938191076 711.4764829351403 2646.3472938191076 698.2979716134378L2646.3472938191076 698.2979716134378Q2646.3472938191076 687.6096673143074 2649.6209367588935 678.3483355786735Q2652.8945796986795 669.0870038430397 2659.050147619645 662.2878992757918Q2665.1777356864236 655.4887947085441 2674.0473494634507 651.5995949766615Q2682.916963240478 647.7383750989653 2693.996985498215 647.7383750989653ZM2694.388703456822 660.9168864206678L2694.388703456822 660.9168864206678Q2681.406051114423 660.9168864206678 2673.9354300467057 668.4154873425708Q2666.4927888331754 675.9420681186599 2664.674098311072 689.2324988571073L2664.674098311072 689.2324988571073L2720.186129016503 689.2324988571073Q2720.186129016503 682.9929913735835 2718.4793579111447 677.7887384949495Q2716.7446069516 672.6124654705015 2713.4429841576275 668.8351851553639Q2710.113381509469 665.0579048402261 2705.328826443628 662.9873956304469Q2700.544271377787 660.9168864206678 2694.388703456822 660.9168864206678ZM2851.9432623793423 751.3757550046687L2800.852048635332 751.3757550046687L2800.852048635332 607.027687258037L2846.9068886258256 607.027687258037Q2860.197319364273 607.027687258037 2869.8223892043275 609.6577935515402Q2879.419479190196 612.2599199908573 2885.6310068195335 617.1004347650708Q2891.8145545946845 621.9409495392842 2894.780419138422 628.9359130858355Q2897.774263536346 635.9308766323867 2897.774263536346 644.7165508468551L2897.774263536346 644.7165508468551Q2897.774263536346 650.0327231422341 2896.0954722851743 654.9851573331923Q2894.444660888188 659.9096116699644 2891.059098531657 664.1345696520814Q2887.7015160293126 668.3875074883846 2882.609182567423 671.6891302823568Q2877.516849105534 675.0187329305152 2870.661784829914 677.1452018486667L2870.661784829914 677.1452018486667Q2886.4704024451194 680.2509656633355 2894.5286004507466 688.5330025024522Q2902.5867984563733 696.7870594873826 2902.5867984563733 710.2733492051335L2902.5867984563733 710.2733492051335Q2902.5867984563733 719.4507413782088 2899.229215954029 727.0053020084841Q2895.8436535974984 734.5598626387595 2889.3523274262984 739.9879543508833Q2882.861001255099 745.4440259171932 2873.431790394348 748.409890460931Q2864.030559387783 751.3757550046687 2851.9432623793423 751.3757550046687L2851.9432623793423 751.3757550046687ZM2851.5235645665493 685.5951178129006L2820.4099667114892 685.5951178129006L2820.4099667114892 735.8749157855111L2851.6354839832943 735.8749157855111Q2860.0014603849695 735.8749157855111 2865.9891491808175 733.9443058466629Q2871.976837976665 732.0416757620011 2875.8660377085475 728.5721738429116Q2879.727257586244 725.074692069636 2881.545948108347 720.2901370037949Q2883.364638630451 715.5055819379539 2883.364638630451 709.7697118297818L2883.364638630451 709.7697118297818Q2883.364638630451 698.6057500094861 2875.4463398957546 692.0864439841002Q2867.556021015245 685.5951178129006 2851.5235645665493 685.5951178129006L2851.5235645665493 685.5951178129006ZM2820.4099667114892 622.4445869146359L2820.4099667114892 671.6891302823568L2846.179412416984 671.6891302823568Q2854.461449256101 671.6891302823568 2860.5050977603214 669.8984196144396Q2866.5487462645415 668.0797290923364 2870.521885558983 664.8620458609226Q2874.4950248534237 661.6163827753229 2876.3976549380855 657.0556665429716Q2878.3282648769336 652.4669704564338 2878.3282648769336 647.0108988901239L2878.3282648769336 647.0108988901239Q2878.3282648769336 634.336024943773 2870.661784829914 628.3763160021114Q2863.0232846370795 622.4445869146359 2846.9068886258256 622.4445869146359L2846.9068886258256 622.4445869146359L2820.4099667114892 622.4445869146359ZM2925.9779565560407 649.333226787579L2943.8850632352123 649.333226787579L2943.8850632352123 714.4143676246919Q2943.8850632352123 725.9980272577808 2949.2292153847775 732.3494541580493Q2954.573367534342 738.6729012041317 2965.3456113960315 738.6729012041317L2965.3456113960315 738.6729012041317Q2973.207950422355 738.6729012041317 2980.1469542605337 734.9515805973664Q2987.113937952899 731.2302599906011 2992.961727477816 724.5710546942843L2992.961727477816 724.5710546942843L2992.961727477816 649.333226787579L3010.868834156987 649.333226787579L3010.868834156987 751.3757550046687L3000.2085097120425 751.3757550046687Q2996.3752696885326 751.3757550046687 2995.3679949378293 747.6544343979034L2995.3679949378293 747.6544343979034L2993.969002228519 736.6583517027249Q2987.309796932202 744.0170533536968 2979.055739947272 748.4938300234896Q2970.801682962341 752.9985865474686 2960.113378663211 752.9985865474686L2960.113378663211 752.9985865474686Q2951.7474022615356 752.9985865474686 2945.367995507081 750.2285809830344Q2938.96060889844 747.4585754186 2934.6237314995783 742.4222016650831Q2930.2868541007165 737.3858279115663 2928.132405328379 730.2229852398976Q2925.9779565560407 723.0601425682293 2925.9779565560407 714.4143676246919L2925.9779565560407 714.4143676246919L2925.9779565560407 649.333226787579ZM3042.40212982484 649.333226787579L3060.3372163581976 649.333226787579L3060.3372163581976 751.3757550046687L3042.40212982484 751.3757550046687L3042.40212982484 649.333226787579ZM3064.366315361011 617.2962937443741L3064.366315361011 617.2962937443741Q3064.366315361011 619.9264000378774 3063.3030809019356 622.1927682269601Q3062.2398464428597 624.4591364160427 3060.4771156291285 626.2218672297736Q3058.714384815398 627.9845980435044 3056.4200367721287 628.9918727942079Q3054.0977088746736 629.9991475449112 3051.4676025811705 629.9991475449112L3051.4676025811705 629.9991475449112Q3048.8654761418534 629.9991475449112 3046.5991079527707 628.9918727942079Q3044.332739763688 627.9845980435044 3042.570008949957 626.2218672297736Q3040.807278136226 624.4591364160427 3039.8000033855233 622.1927682269601Q3038.79272863482 619.9264000378774 3038.79272863482 617.2962937443741L3038.79272863482 617.2962937443741Q3038.79272863482 614.694167305057 3039.8000033855233 612.3158796992296Q3040.807278136226 609.9655719475885 3042.570008949957 608.2028411338575Q3044.332739763688 606.4401103201266 3046.5991079527707 605.4328355694232Q3048.8654761418534 604.4255608187199 3051.4676025811705 604.4255608187199L3051.4676025811705 604.4255608187199Q3054.0977088746736 604.4255608187199 3056.4200367721287 605.4328355694232Q3058.714384815398 606.4401103201266 3060.4771156291285 608.2028411338575Q3062.2398464428597 609.9655719475885 3063.3030809019356 612.3158796992296Q3064.366315361011 614.694167305057 3064.366315361011 617.2962937443741ZM3093.969001090016 602.9985882552234L3111.9040876233735 602.9985882552234L3111.9040876233735 751.3757550046687L3093.969001090016 751.3757550046687L3093.969001090016 602.9985882552234ZM3226.0339128489036 751.3757550046687L3215.3456085497733 751.3757550046687Q3211.54034838045 751.3757550046687 3210.5330736297465 747.6544343979034L3210.5330736297465 747.6544343979034L3208.9102420869463 735.2593589934146Q3202.3629562073743 743.2056375822968 3193.9410200973266 747.9901926481378Q3185.547063841465 752.774747713979 3174.662900563031 752.774747713979L3174.662900563031 752.774747713979Q3165.905206202749 752.774747713979 3158.7423635310806 749.4171652116344Q3151.6075007135983 746.0316028551036 3146.5711269600815 739.4843169755316Q3141.5347532065643 732.9370310959596 3138.7927274963167 723.172061984974Q3136.0786816402547 713.4070928739885 3136.0786816402547 700.7042390734514L3136.0786816402547 700.7042390734514Q3136.0786816402547 689.4283578364108 3139.1005058923647 679.7193484337976Q3142.1223301444747 669.9823591769983 3147.830220398461 662.847496359516Q3153.5101307982604 655.6846536878475 3161.680248220632 651.5995949766615Q3169.822385788818 647.5145362654756 3180.2029116918998 647.5145362654756L3180.2029116918998 647.5145362654756Q3189.5761628442788 647.5145362654756 3196.2073882864092 650.704239642703Q3202.8665935827257 653.8659631657441 3208.0988263155464 659.6018332739162L3208.0988263155464 659.6018332739162L3208.0988263155464 602.9985882552234L3226.0339128489036 602.9985882552234L3226.0339128489036 751.3757550046687ZM3180.5946296505067 738.2811832455247L3180.5946296505067 738.2811832455247Q3189.3803038649753 738.2811832455247 3195.9555695987333 734.2520842427112Q3202.5588151866777 730.2229852398976 3208.0988263155464 722.8642835889258L3208.0988263155464 722.8642835889258L3208.0988263155464 673.50782080446Q3203.174371978774 666.8765953623296 3197.270622745485 664.1905293604538Q3191.394853366382 661.5324432127644 3184.232010694713 661.5324432127644L3184.232010694713 661.5324432127644Q3169.9343052055624 661.5324432127644 3162.2678251585426 671.6891302823568Q3154.6293249657083 681.8737972061355 3154.6293249657083 700.7042390734514L3154.6293249657083 700.7042390734514Q3154.6293249657083 710.6930470179266 3156.336096071067 717.7719501270365Q3158.0428671764257 724.8788330903325 3161.3724698245837 729.4675291768702Q3164.7020724727427 734.0562252634078 3169.5146073927694 736.1547143273732Q3174.3551221669827 738.2811832455247 3180.5946296505067 738.2811832455247ZM3296.5431453981405 647.7383750989653L3296.5431453981405 647.7383750989653Q3305.720537571216 647.7383750989653 3313.4709571807944 650.7881792052616Q3321.221376790373 653.8659631657441 3326.8733073359867 659.6577929822886Q3332.497258027414 665.449622798833 3335.6869614046414 673.9554984714393Q3338.848684927683 682.4893539982319 3338.848684927683 693.3455374224794L3338.848684927683 693.3455374224794Q3338.848684927683 697.5984752587826 3337.953329593724 698.9974679680929Q3337.0299944055787 700.3964606774031 3334.511807528821 700.3964606774031L3334.511807528821 700.3964606774031L3266.632681273087 700.3964606774031Q3266.8285402523907 710.07749022583 3269.2348077124043 717.2403328974985Q3271.669055026604 724.3751957149808 3275.8940130087212 729.1597507808219Q3280.1189709908385 733.9443058466629 3285.9667605157547 736.3225934524904Q3291.8145500406717 738.6729012041317 3299.061332274899 738.6729012041317L3299.061332274899 738.6729012041317Q3305.804477133774 738.6729012041317 3310.7009516163603 737.1340092238903Q3315.5694462447595 735.5671373894629 3319.094907872222 733.7484468673596Q3322.620369499684 731.9297563452562 3324.998657105511 730.3628845108287Q3327.3769447113386 728.8239925305875 3329.083715816697 728.8239925305875L3329.083715816697 728.8239925305875Q3331.294124297407 728.8239925305875 3332.497258027414 730.530763635946L3332.497258027414 730.530763635946L3337.533631780931 737.0780495155179Q3334.204029132772 741.1071485183314 3329.587353192049 744.0730130620692Q3324.9426973971385 747.038877605807 3319.654504955946 748.9694875446551Q3314.366312514753 750.872117629317 3308.7423618233256 751.823432671648Q3303.090431277712 752.774747713979 3297.550420148844 752.774747713979L3297.550420148844 752.774747713979Q3286.9740352664585 752.774747713979 3278.048461781059 749.2213062323309Q3269.1508681498453 745.6398848964967 3262.6595419786463 738.728860912504Q3256.1402359532603 731.8458167826976 3252.53083476324 721.661149858919Q3248.8934537190335 711.4764829351403 3248.8934537190335 698.2979716134378L3248.8934537190335 698.2979716134378Q3248.8934537190335 687.6096673143074 3252.167096658819 678.3483355786735Q3255.440739598605 669.0870038430397 3261.59630751957 662.2878992757918Q3267.723895586349 655.4887947085441 3276.5935093633766 651.5995949766615Q3285.4631231404032 647.7383750989653 3296.5431453981405 647.7383750989653ZM3296.9348633567474 660.9168864206678L3296.9348633567474 660.9168864206678Q3283.952211014348 660.9168864206678 3276.5095698008176 668.4154873425708Q3269.038948733101 675.9420681186599 3267.2202582109976 689.2324988571073L3267.2202582109976 689.2324988571073L3322.7322889164284 689.2324988571073Q3322.7322889164284 682.9929913735835 3321.02551781107 677.7887384949495Q3319.3187467057114 672.6124654705015 3315.989144057553 668.8351851553639Q3312.6595414093945 665.0579048402261 3307.8749863435537 662.9873956304469Q3303.090431277712 660.9168864206678 3296.9348633567474 660.9168864206678ZM3379.6433123311695 751.3757550046687L3361.7082257978122 751.3757550046687L3361.7082257978122 649.333226787579L3371.976832284149 649.333226787579Q3374.9147169737007 649.333226787579 3376.0059312869626 650.4524209550272Q3377.125125454411 651.5436352682891 3377.516843413018 654.2856609785373L3377.516843413018 654.2856609785373L3378.747956997211 670.1782181563017Q3383.9801897300313 659.5178937113576 3391.674649631238 653.5302049155097Q3399.3970893866303 647.5145362654756 3409.7496354355258 647.5145362654756L3409.7496354355258 647.5145362654756Q3414.002573271829 647.5145362654756 3417.416115482546 648.4938311619927Q3420.829657693263 649.4451462043238 3423.7675423828146 651.1519173096823L3423.7675423828146 651.1519173096823L3421.44521448536 664.5542674648744Q3420.7457181307045 667.0724543416329 3418.311470816505 667.0724543416329L3418.311470816505 667.0724543416329Q3416.9124781071946 667.0724543416329 3414.002573271829 666.121139299302Q3411.0646885822775 665.1418444027848 3405.8324558494573 665.1418444027848L3405.8324558494573 665.1418444027848Q3396.4592046970783 665.1418444027848 3390.1637375051823 670.5979159690947Q3383.868270313286 676.0260076812185 3379.6433123311695 686.4065335843006L3379.6433123311695 686.4065335843006L3379.6433123311695 751.3757550046687Z " fill="#2e2f2f" transform="matrix(0.2555664315488773,0,0,0.2555664315488773,0,126.72633790268728)"/></g></svg>